<svg xmlns="http://www.w3.org/2000/svg" width="1280" height="720" viewBox="0 0 1280 720">
  <defs>
    <linearGradient id="bg" x1="0" y1="0" x2="1" y2="1">
      <stop offset="0" stop-color="#f8fbff"/>
      <stop offset="0.55" stop-color="#fffdf7"/>
      <stop offset="1" stop-color="#eef7ee"/>
    </linearGradient>
    <linearGradient id="glass" x1="0" y1="0" x2="0" y2="1">
      <stop offset="0" stop-color="#dff2ff" stop-opacity=".9"/>
      <stop offset="1" stop-color="#ffffff" stop-opacity=".55"/>
    </linearGradient>
    <filter id="shadow" x="-20%" y="-20%" width="140%" height="140%">
      <feDropShadow dx="0" dy="18" stdDeviation="18" flood-color="#203421" flood-opacity=".16"/>
    </filter>
  </defs>
  <rect width="1280" height="720" fill="url(#bg)"/>
  <rect x="70" y="70" width="1140" height="520" rx="34" fill="#fff" opacity=".82" filter="url(#shadow)"/>
  <rect x="95" y="95" width="1090" height="250" rx="24" fill="url(#glass)"/>
  <path d="M120 430 C300 388 420 465 585 423 C735 385 875 405 1160 360 L1160 590 L120 590 Z" fill="#eef4e8"/>
  <g stroke="#c9d8dc" stroke-width="5" opacity=".55">
    <path d="M250 95v250M430 95v250M610 95v250M790 95v250M970 95v250"/>
    <path d="M95 220h1090"/>
  </g>
  <rect x="95" y="590" width="1090" height="22" rx="11" fill="#2f7d28" opacity=".18"/>
  <g transform="translate(475 390) rotate(5)">
    <path d="M-62-112h124v224l-18-12-18 12-18-12-18 12-18-12-18 12-18-12z" fill="#fff" stroke="#d0d5dd" stroke-width="5"/>
    <circle cx="-28" cy="-48" r="12" fill="#b85c2d"/><circle cx="28" cy="-48" r="12" fill="#b85c2d"/>
    <rect x="-38" y="-4" width="76" height="12" rx="6" fill="#98a2b3"/>
    <rect x="-38" y="28" width="76" height="12" rx="6" fill="#98a2b3"/>
  </g><g transform="translate(755 390)"><rect x="-95" y="-80" width="190" height="160" rx="22" fill="#fff" stroke="#98a2b3" stroke-width="6"/><circle cx="-45" cy="-12" r="18" fill="#2f7d28"/><circle cx="0" cy="-12" r="18" fill="#2f7d28"/><circle cx="45" cy="-12" r="18" fill="#2f7d28"/><rect x="-58" y="38" width="116" height="12" rx="6" fill="#98a2b3"/></g>
</svg>