<svg xmlns="http://www.w3.org/2000/svg" width="1280" height="720" viewBox="0 0 1280 720">
  <defs>
    <linearGradient id="bg" x1="0" y1="0" x2="1" y2="1">
      <stop offset="0" stop-color="#f8fbff"/>
      <stop offset="0.55" stop-color="#fffdf7"/>
      <stop offset="1" stop-color="#eef7ee"/>
    </linearGradient>
    <linearGradient id="glass" x1="0" y1="0" x2="0" y2="1">
      <stop offset="0" stop-color="#dff2ff" stop-opacity=".9"/>
      <stop offset="1" stop-color="#ffffff" stop-opacity=".55"/>
    </linearGradient>
    <filter id="shadow" x="-20%" y="-20%" width="140%" height="140%">
      <feDropShadow dx="0" dy="18" stdDeviation="18" flood-color="#203421" flood-opacity=".16"/>
    </filter>
  </defs>
  <rect width="1280" height="720" fill="url(#bg)"/>
  <rect x="70" y="70" width="1140" height="520" rx="34" fill="#fff" opacity=".82" filter="url(#shadow)"/>
  <rect x="95" y="95" width="1090" height="250" rx="24" fill="url(#glass)"/>
  <path d="M120 430 C300 388 420 465 585 423 C735 385 875 405 1160 360 L1160 590 L120 590 Z" fill="#eef4e8"/>
  <g stroke="#c9d8dc" stroke-width="5" opacity=".55">
    <path d="M250 95v250M430 95v250M610 95v250M790 95v250M970 95v250"/>
    <path d="M95 220h1090"/>
  </g>
  <rect x="95" y="590" width="1090" height="22" rx="11" fill="#5a3c2d" opacity=".18"/>
  <g transform="translate(455 430) scale(1)">
    <circle cx="0" cy="-118" r="38" fill="#f0c7aa"/>
    <path d="M-38-120c12-44 66-48 82-12 0-38-34-58-67-49-30 8-44 31-45 61z" fill="#1f2937"/>
    <path d="M-43-72h86l26 170h-138z" fill="#496b9f"/>
    <path d="M-38 98h35v142h-44zM3 98h35l12 142h-44z" fill="#263246"/>
    <path d="M-54-55l-34 110M54-55l38 105" stroke="#f0c7aa" stroke-width="18" stroke-linecap="round"/>
    <path d="M-45 240h45M0 240h48" stroke="#1f2937" stroke-width="14" stroke-linecap="round"/>
  </g><g transform="translate(720 415) scale(1.02)"><circle cx="0" cy="-118" r="38" fill="#f0c7aa"/><path d="M-58-112c18-78 113-76 130 2-4 68-33 108-72 118-42-8-65-48-58-120z" fill="#5a3c2d"/><path d="M-43-72h86l26 170h-138z" fill="#567c52"/><path d="M-38 98h35v142h-44zM3 98h35l12 142h-44z" fill="#263246"/></g><path d="M405 290c58-48 105-46 151 0M660 262c62-70 128-70 186 2" stroke="#b85c2d" stroke-width="10" fill="none" opacity=".7"/>
</svg>